<?xml version="1.0" standalone="no"?><!DOCTYPE svg PUBLIC "-//W3C//DTD SVG 1.1//EN" "http://www.w3.org/Graphics/SVG/1.1/DTD/svg11.dtd"><svg class="icon" width="200px" height="200.00px" viewBox="0 0 1024 1024" version="1.1" xmlns="http://www.w3.org/2000/svg"><path fill="#333333" d="M441.9 293.9m-50.3 0a50.3 50.3 0 1 0 100.6 0 50.3 50.3 0 1 0-100.6 0Z"  /><path fill="#333333" d="M653.5 333.6m-50.3 0a50.3 50.3 0 1 0 100.6 0 50.3 50.3 0 1 0-100.6 0Z"  /><path fill="#333333" d="M740.8 511.2m-50.3 0a50.3 50.3 0 1 0 100.6 0 50.3 50.3 0 1 0-100.6 0Z"  /><path fill="#333333" d="M297.6 454.7m-50.3 0a50.3 50.3 0 1 0 100.6 0 50.3 50.3 0 1 0-100.6 0Z"  /><path fill="#333333" d="M513 958.1c-246.4 0-446.9-200.5-446.9-446.9s200.5-447 446.9-447 446.9 200.5 446.9 446.9c0 83.2-25.4 152.9-71.6 196.1-38.6 36.2-90.9 53.3-151.4 49.3-31-2-59.9-14.6-85.5-25.6-46.5-20.2-59.1-22.1-70.9-11.1-9.8 9.1-14.2 13.3 12 53.2 4.3 6.5 8.2 12.6 11.3 18 21.9 38.8 22.9 80.7 2.9 115-18.9 32.6-54 52.1-93.7 52.1z m0-804.5c-197.2 0-357.6 160.4-357.6 357.6S315.8 868.7 513 868.7c7.7 0 13.8-2.8 16.7-7.8 3.6-6.1 2.2-15.6-3.6-26-2.2-3.8-5-8.1-8.1-12.7-18.5-28.2-67.8-102.9 1.6-167.7 57.2-53.3 123.5-24.6 167.4-5.5 19.8 8.6 40.3 17.4 55.7 18.5 36.1 2.4 63.8-5.9 84.5-25.3 27.5-25.8 43.3-73.5 43.3-130.9 0.1-197.3-160.3-357.7-357.5-357.7z"  /></svg>