<?xml version="1.0" standalone="no"?><!DOCTYPE svg PUBLIC "-//W3C//DTD SVG 1.1//EN" "http://www.w3.org/Graphics/SVG/1.1/DTD/svg11.dtd"><svg class="icon" width="200px" height="200.00px" viewBox="0 0 1024 1024" version="1.1" xmlns="http://www.w3.org/2000/svg"><path fill="#333333" d="M667.8 189l-345.6 91.2v433.5c-15.4-9.2-34.8-14.8-56.4-14.8-50.8 0-90.7 29.9-90.7 68.1s39.8 68.1 90.7 68.1c48.3 0 86.2-27 89.9-62.4h0.7V422.4l333-89v300.2c-15.4-9.2-34.8-14.8-56.4-14.8-50.8 0-90.7 29.9-90.7 68.1S582.2 755 633 755c48.1 0 86-26.9 89.9-62.2h0.8v-481L667.8 189z"  /></svg>