<?xml version="1.0" standalone="no"?><!DOCTYPE svg PUBLIC "-//W3C//DTD SVG 1.1//EN" "http://www.w3.org/Graphics/SVG/1.1/DTD/svg11.dtd"><svg class="icon" width="200px" height="200.00px" viewBox="0 0 1024 1024" version="1.1" xmlns="http://www.w3.org/2000/svg"><path fill="#333333" d="M718.8 661.3H580.9c-19 0-34.5 15.4-34.5 34.5 0 19 15.4 34.5 34.5 34.5h137.9c19 0 34.5-15.4 34.5-34.5-0.1-19.1-15.5-34.5-34.5-34.5zM458.7 545.9l-139.3-80.4c-17.1-9.9-39-4-48.8 13.1-9.9 17.1-4 39 13.1 48.8l108.9 62.9c-41 23.6-108.9 62.9-108.9 62.9-17.1 9.9-23 31.8-13.1 48.8 9.9 17.1 31.7 23 48.8 13.1l139.3-80.4c20.8-15.8 18.5-45.2 18.5-45.2l-0.1-1.4c2.3-15.9-5-34.5-18.4-42.2z m409.4-206.2H155.9c-50.8 0-91.9 41.1-91.9 91.9v321.7c0 50.7 41.1 91.9 91.9 91.9h712.2c50.8 0 91.9-41.1 91.9-91.9V431.6c0-50.7-41.1-91.9-91.9-91.9z m23 390.6c0 25.4-20.6 45.9-45.9 45.9H178.9c-25.4 0-45.9-20.6-45.9-45.9V454.6c0-25.4 20.6-46 45.9-46h666.3c25.4 0 45.9 20.6 45.9 46v275.7z m-23-551.4H155.9c-50.8 0-91.9 41.2-91.9 91.9v114.9c0-50.8 41.1-91.9 91.9-91.9h712.2c50.8 0 91.9 41.1 91.9 91.9V270.8c0-50.7-41.1-91.9-91.9-91.9z m-643.3 68.9c0 12.7-10.3 23-23 23h-23c-12.7 0-23-10.3-23-23v-22.9c0-12.7 10.3-23 23-23h23c12.7 0 23 10.3 23 23v22.9z m114.9 0c0 12.7-10.3 23-23 23h-23c-12.7 0-23-10.3-23-23v-22.9c0-12.7 10.3-23 23-23h23c12.7 0 23 10.3 23 23v22.9z m114.9 0c0 12.7-10.3 23-23 23h-23c-12.7 0-23-10.3-23-23v-22.9c0-12.7 10.3-23 23-23h23c12.7 0 23 10.3 23 23v22.9z"  /></svg>