<?xml version="1.0" standalone="no"?><!DOCTYPE svg PUBLIC "-//W3C//DTD SVG 1.1//EN" "http://www.w3.org/Graphics/SVG/1.1/DTD/svg11.dtd"><svg class="icon" width="200px" height="200.00px" viewBox="0 0 1024 1024" version="1.1" xmlns="http://www.w3.org/2000/svg"><path fill="#333333" d="M511.290372 0a213.037655 213.037655 0 0 1 213.037654 213.037655v42.607531h66.467749l118.406328-118.363721a42.607531 42.607531 0 0 1 56.241941-3.536425l4.005108 3.536425a42.607531 42.607531 0 0 1 0 60.247049L852.150619 314.784439V511.290372h127.822593a42.607531 42.607531 0 0 1 0 85.215062h-127.822593v85.215061c0 56.668016-13.80484 110.09786-38.30417 157.093967l111.929984 111.929984a42.607531 42.607531 0 1 1-60.247049 60.247049l-101.065063-101.065064A340.008097 340.008097 0 0 1 511.290372 1022.580743a340.008097 340.008097 0 0 1-253.68524-113.20821L155.943563 1010.991495a42.607531 42.607531 0 1 1-60.247048-60.247049L208.350826 838.090134A339.411592 339.411592 0 0 1 170.430124 681.720495v-85.215061H42.607531a42.607531 42.607531 0 0 1 0-85.215062h127.822593V315.892235L52.066403 197.528514a42.607531 42.607531 0 1 1 60.247049-60.247049L230.677173 255.645186H298.252717V213.037655A213.037655 213.037655 0 0 1 502.044537 0.213038z m-42.607531 340.860248H255.645186v340.860247a255.730401 255.730401 0 0 0 213.037655 252.108761V340.860248z m298.252716 0h-213.037654v592.969008A255.730401 255.730401 0 0 0 766.935557 681.720495V340.860248z m-255.645185-255.645186a127.822593 127.822593 0 0 0-127.822593 127.822593v42.607531h255.645185V213.037655a127.822593 127.822593 0 0 0-120.323667-127.609555z" /></svg>