<?xml version="1.0" standalone="no"?><!DOCTYPE svg PUBLIC "-//W3C//DTD SVG 1.1//EN" "http://www.w3.org/Graphics/SVG/1.1/DTD/svg11.dtd"><svg class="icon" width="200px" height="200.00px" viewBox="0 0 1024 1024" version="1.1" xmlns="http://www.w3.org/2000/svg"><path fill="#333333" d="M471.38 898.64H166.27c-16.09 0-29.18-13.09-29.18-29.18V154.54c0-16.09 13.09-29.18 29.18-29.18h685.74c16.09 0 29.18 13.09 29.18 29.18v204.37c0 16.11 13.07 29.18 29.18 29.18s29.18-13.07 29.18-29.18V154.54c0-48.27-39.27-87.54-87.54-87.54H166.27c-48.27 0-87.54 39.27-87.54 87.54v714.92c0 48.27 39.27 87.54 87.54 87.54h305.11c16.11 0 29.18-13.07 29.18-29.18 0-16.12-13.07-29.18-29.18-29.18z"  /><path fill="#333333" d="M898.68 464.17l-15.09-9.31c-46.09-28.48-106.72-14.13-135.2 31.96l-10.59 17.15c0 0.01-0.01 0.01-0.01 0.01L588.97 744.91c-0.9 1.45-1.56 2.98-2.08 4.53-0.12 0.35-0.18 0.71-0.28 1.07-0.38 1.35-0.63 2.72-0.75 4.09-0.02 0.25-0.12 0.48-0.13 0.73l-8.69 176.19c-0.4 7.96 3.58 15.5 10.36 19.69 3.52 2.18 7.51 3.27 11.5 3.27 3.7 0 7.41-0.94 10.74-2.82l153.68-86.63c0.47-0.26 0.82-0.66 1.27-0.95 0.54-0.35 1.01-0.73 1.51-1.13 1.87-1.49 3.51-3.17 4.79-5.14 0.08-0.13 0.23-0.2 0.31-0.34L920 616.58l0.02-0.02 10.61-17.18c28.48-46.1 14.13-106.75-31.95-135.21zM745.46 815.85l-35.25-21.78 125.82-203.68 35.26 21.78-125.83 203.68z m18.08-270.24l35.25 21.78-125.82 203.68-35.26-21.78 125.83-203.68z m97.06-53.51l15.09 9.32c12.38 7.64 21.03 19.65 24.38 33.8 3.22 13.61 1.15 27.64-5.8 39.7l-53.86-33.27-53.86-33.27c16.14-24.42 48.98-31.77 74.05-16.28zM622.71 894.05l4.92-99.55 14.43 8.92 67.48 41.69-86.83 48.94zM207.35 271.26c-16.11 0-29.18 13.07-29.18 29.18s13.07 29.18 29.18 29.18h516.68c16.11 0 29.18-13.07 29.18-29.18s-13.07-29.18-29.18-29.18H207.35zM589.18 497.41c0-16.11-13.07-29.18-29.18-29.18H207.35c-16.11 0-29.18 13.07-29.18 29.18s13.07 29.18 29.18 29.18H560c16.12 0 29.18-13.07 29.18-29.18zM408.97 708.97c16.11 0 29.18-13.07 29.18-29.18s-13.07-29.18-29.18-29.18H207.35c-16.11 0-29.18 13.07-29.18 29.18s13.07 29.18 29.18 29.18h201.62z"  /></svg>